<?xml version="1.0" encoding="iso-8859-1"?>
<!-- Generator: Adobe Illustrator 19.0.0, SVG Export Plug-In . SVG Version: 6.00 Build 0)  -->
<svg xmlns="http://www.w3.org/2000/svg" xmlns:xlink="http://www.w3.org/1999/xlink" version="1.1" id="Layer_1" x="0px" y="0px" viewBox="0 0 512 512" style="enable-background:new 0 0 512 512;" xml:space="preserve" width="512px" height="512px">
<g>
	<g>
		<path d="M432.232,94.608c-9.876-36.826-43.402-62.546-81.529-62.546H300.29c5.793-2.649,9.826-8.481,9.826-15.267    C310.116,7.52,302.597,0,293.321,0h-74.643c-9.275,0-16.795,7.52-16.795,16.795c0,6.786,4.033,12.618,9.826,15.267h-50.413    c-38.127,0-71.654,25.72-81.529,62.547c-2.857,10.66,5.188,21.145,16.224,21.145h320.02    C427.048,115.753,435.091,105.266,432.232,94.608z M123.825,82.164c9.407-10.255,22.88-16.513,37.472-16.513h189.406    c14.592,0,28.065,6.258,37.472,16.513H123.825z" fill="#FFFFFF"/>
	</g>
</g>
<g>
	<g>
		<path d="M416.011,149.343H95.991c-9.83,0-17.567,8.419-16.734,18.218l27.991,329.068c0.739,8.693,8.01,15.372,16.734,15.372    H388.02c8.724,0,15.995-6.679,16.734-15.372l27.991-329.068C433.578,157.766,425.845,149.343,416.011,149.343z M372.592,478.411    H139.408l-25.134-295.479h283.453L372.592,478.411z" fill="#FFFFFF"/>
	</g>
</g>
<g>
	<g>
		<path d="M256,203.029c-9.275,0-16.795,7.52-16.795,16.795v220.57c0,9.275,7.52,16.795,16.795,16.795s16.795-7.52,16.795-16.795    v-220.57C272.795,210.548,265.275,203.029,256,203.029z" fill="#FFFFFF"/>
	</g>
</g>
<g>
	<g>
		<path d="M202.188,438.864l-20.154-220.57c-0.844-9.237-9.017-16.039-18.254-15.196c-9.237,0.844-16.041,9.016-15.197,18.254    l20.154,220.57c0.849,9.293,9.086,16.046,18.254,15.196C196.228,456.273,203.032,448.101,202.188,438.864z" fill="#FFFFFF"/>
	</g>
</g>
<g>
	<g>
		<path d="M348.22,203.099c-9.233-0.855-17.409,5.959-18.254,15.196l-20.154,220.57c-0.844,9.237,5.96,17.409,15.197,18.254    c9.181,0.85,17.405-5.916,18.254-15.196l20.154-220.57C364.26,212.116,357.457,203.943,348.22,203.099z" fill="#FFFFFF"/>
	</g>
</g>
<g>
</g>
<g>
</g>
<g>
</g>
<g>
</g>
<g>
</g>
<g>
</g>
<g>
</g>
<g>
</g>
<g>
</g>
<g>
</g>
<g>
</g>
<g>
</g>
<g>
</g>
<g>
</g>
<g>
</g>
</svg>
